<?xml version="1.0" encoding="UTF-8"?><svg id="a" xmlns="http://www.w3.org/2000/svg" viewBox="0 0 1080 360"><defs><style>.f{fill:#fff;}.g{fill:#009145;}.h{fill:#e42528;}</style></defs><g><g id="b"><g><path class="h" d="M745.82,238.57l-.26,6.81c-39.67-4.8-162.91-20.07-214.22-35.38-2.48-.75-4.85-1.48-7.08-2.21v-8.9c2.23,.73,4.6,1.47,7.08,2.21,51.16,15.26,173.82,30.5,213.87,35.34,.39,1.04,.55,1.78,.61,2.13Z"/><path class="f" d="M525.05,199.96c1.77,.57,3.73,1.18,6.06,1.88,34.46,10.28,110.27,22.82,213.52,35.31,.24,.7,.35,1.21,.4,1.46l-.22,5.87c-73.24-8.87-169.34-22.15-213.24-35.25-2.54-.76-4.63-1.41-6.52-2.03v-7.24m-.79-1.09v8.9c2.23,.73,4.6,1.47,7.08,2.21,51.31,15.32,174.55,30.59,214.22,35.38l.26-6.81c-.06-.35-.21-1.09-.61-2.14-40.05-4.84-162.71-20.08-213.87-35.34-2.48-.73-4.86-1.46-7.08-2.2h0Z"/></g><g><path class="f" d="M524.26,198.87v8.9c-1.32-.42-2.59-.86-3.82-1.28-36.78-12.89-122-32.88-209.89-36.93v-8.9c87.89,4.05,173.12,24.04,209.89,36.93,1.22,.43,2.49,.86,3.82,1.28Z"/><path class="f" d="M311.34,161.49c87.92,4.15,173,24.29,208.84,36.85,.98,.34,2.1,.72,3.29,1.11v7.24c-.99-.33-1.93-.65-2.77-.94-35.93-12.59-121.25-32.79-209.36-36.94v-7.32m-.79-.83v8.9c87.89,4.05,173.12,24.04,209.89,36.93,1.22,.42,2.49,.86,3.82,1.28v-8.9c-1.32-.42-2.59-.86-3.82-1.28-36.78-12.88-122-32.88-209.89-36.93h0Z"/></g><g><path class="g" d="M310.55,160.66v8.9c-5.11-.24-10.22-.42-15.33-.55h-.03l-1.27-.03c-.86-.01-1.71-.03-2.56-.06-52.92-.99-193.9,4.72-237.9,8.83-.12,.01-.24,.02-.37,.03,6.96-1.12,36.17-5.75,77.11-10.01,.02-.01,.03-.01,.06-.01,3.87-.41,7.86-.81,11.93-1.2,42.64-4.12,95.78-7.55,149.16-6.54,.85,.02,1.7,.04,2.56,.06l1.27,.03h.03c5.12,.13,10.23,.31,15.34,.55Z"/><path class="f" d="M272.32,160.64c6.41,0,12.81,.06,19.02,.18,.85,.02,1.71,.04,2.56,.06l1.3,.03c4.97,.12,9.86,.29,14.56,.51v7.32c-4.69-.22-9.57-.39-14.55-.51l-1.28-.03c-.85-.01-1.71-.03-2.56-.06-4.02-.08-8.68-.11-13.85-.11-53.16,0-150.97,3.86-202.67,7.3,13.99-1.97,33-4.42,55.44-6.75h.14v-.02c3.76-.4,7.74-.8,11.84-1.19,46.15-4.47,89.9-6.73,130.05-6.73m0-.79c-46.85,0-92.56,3.09-130.13,6.72-4.07,.39-8.06,.79-11.93,1.2-.02,0-.03,0-.06,.01-40.94,4.25-70.16,8.88-77.11,10.01,.12-.01,.24-.02,.37-.03,40.58-3.79,163.67-8.94,224.06-8.94,5.08,0,9.73,.04,13.83,.11,.85,.02,1.7,.04,2.56,.06l1.27,.03h.03c5.11,.12,10.22,.3,15.33,.55v-8.9c-5.11-.24-10.22-.42-15.33-.55h-.03l-1.27-.03c-.86-.01-1.71-.03-2.56-.06-6.35-.12-12.7-.18-19.03-.18h0Z"/></g></g><path id="c" class="f" d="M745.2,236.43c-40.05-4.84-162.71-20.08-213.87-35.34-2.48-.75-4.85-1.48-7.08-2.21-1.32-.42-2.59-.86-3.82-1.28-36.78-12.89-122-32.88-209.89-36.93-5.11-.24-10.22-.42-15.33-.55h-.03l-1.27-.03c-.86-.01-1.71-.03-2.56-.06-53.38-1-106.52,2.43-149.16,6.54-4.07,.39-8.06,.79-11.93,1.2-.02,0-.03,0-.06,.01-40.94,4.25-70.16,8.88-77.11,10.01-.02,0-.04,.01-.07,.01-.04,.01-.09,.01-.13,.02-.56,.09-.96,.16-1.18,.19,5.2-1.36,101.97-26.49,214.87-48.14,95.77-18.34,203.14-28.81,276.05-30.72,31.53-1.2,59.45-.17,81.34,4-.06,2.99,.02,5.99,.22,8.95,1.37,20.68,8.75,40.56,21.42,57.26,23.15,30.52,49.71,41.14,70.06,48.35,1.27,.45,2.52,.89,3.73,1.31,8.17,2.86,15.88,5.57,19.14,8.48,2.63,2.35,4.32,4.54,5.39,6.37,.58,.97,.98,1.84,1.27,2.56Z"/><g id="d"><g><path class="f" d="M976.6,282.33c-58.79-4.11-91.73-62.82-96.43-78.85-2.19-7.47,.82-13.54,6.77-16.9,1.45-.82,2.97-1.36,4.51-1.6,5.68-.96,11.3,1.85,14.5,7.08,15.37,25.01,29.36,52.43,57.48,63.68,1.57-17.09-.84-118.29-65.78-168.64-24.05-18.66-54.18-31.23-98.03-30.35,9.16,7.08,19.07,17.68,25.94,30.38,24.37,45.08-1.95,85.73-3.85,112.93-1.53,21.89,12.58,43.4,68.05,47.28,8.37,40.45,42.51,64.15,77.37,66.59,60.07,4.2,103.31-51.68,112.87-99.54-18.11,37.14-47.81,71.83-103.4,67.94Zm-70.94-141.02c1.66,6.73,1.1,9.02-.82,13.2,.06,.38-18.69-2.64-20.88-22.29l21.7,9.09Z"/><path class="f" d="M779.12,63.42l-74.15-53.1s-10.85,8.19-15.54,20.35c-11.1,28.71-.61,55.17,23.57,70,18.77,11.51,55.34,25.06,78.68,44.95,8.23,7,15.11,14.67,17.93,17.94,9.4-19.26,10.27-40.4,5.33-54.72-6.33-18.4-13.67-29.42-35.82-45.42Z"/><path class="f" d="M796.94,217.43c-1.65,3.22-3.85,6.3-6.49,9.05-.27,.3-.56,.59-.85,.86-.29,.31-.6,.59-.92,.89-.62,.58-1.26,1.14-1.93,1.66-1.69,1.38-3.5,2.63-5.42,3.72-.27,.16-.56,.33-.84,.46-.16,.09-.33,.18-.5,.26-.32,.18-.64,.33-.97,.48-1.42,.7-2.89,1.31-4.4,1.8-.31,.12-.6,.2-.92,.3-.01,.01-.03,.02-.04,.02-.35,.11-.68,.2-1.03,.28-.32,.09-.62,.18-.93,.25-.43,.11-.85,.21-1.29,.3-.43,.08-.85,.17-1.27,.23-.46,.08-.94,.15-1.4,.22-.82,.09-1.66,.17-2.52,.22-.52,.03-1.05,.04-1.59,.05,0,0,.03-.81-.17-2.21-.02-.18-.04-.37-.08-.58-.03-.2-.06-.41-.12-.63v-.02c-.08-.44-.19-.92-.31-1.43-.07-.28-.16-.59-.25-.91-.04-.17-.09-.35-.15-.53-.16-.54-.35-1.11-.57-1.69-.21-.59-.46-1.2-.73-1.82-.43-.99-.95-2.02-1.55-3.11-.12-.22-.25-.44-.39-.67-.08-.16-.19-.33-.28-.5-.16-.25-.33-.52-.5-.78-.21-.33-.43-.66-.65-1-.24-.36-.52-.72-.77-1.09-.23-.32-.47-.63-.74-.96-.26-.35-.54-.7-.83-1.04-.28-.35-.58-.71-.88-1.05-1.24-1.4-2.65-2.83-4.26-4.27-1.01-.91-2.11-1.74-3.29-2.53-.28-.2-.6-.4-.9-.59-3.24-2.03-7.03-3.73-11.23-5.37-.41-.16-.82-.32-1.25-.47-3.78-1.42-7.88-2.82-12.2-4.35-.87-.32-1.77-.63-2.67-.96-4.24-1.54-8.65-3.22-13.18-5.25-.42-.17-.84-.37-1.29-.56-1.97-.91-3.96-1.86-5.97-2.91-.53-.27-1.04-.55-1.58-.82-1.78-.96-3.57-1.97-5.36-3.06-.4-.24-.81-.5-1.22-.76-3.9-2.41-7.81-5.16-11.68-8.34-.44-.37-.87-.73-1.31-1.11l-1.11-.93c-.52-.45-1.02-.91-1.53-1.36-.36-.33-.71-.65-1.06-.98-.39-.36-.77-.72-1.16-1.1-.34-.31-.65-.63-.99-.96-.48-.45-.95-.92-1.41-1.4-.43-.43-.86-.86-1.27-1.32-.19-.19-.37-.37-.56-.57-.41-.44-.82-.88-1.22-1.33-.45-.51-.91-1-1.36-1.52-.13-.15-.26-.28-.4-.44-.42-.5-.85-.98-1.26-1.49-1.24-1.46-2.49-2.99-3.7-4.58-.16-.2-.32-.39-.45-.59-.39-.52-.77-1.02-1.14-1.54-.38-.51-.75-1.02-1.11-1.55-.36-.52-.71-1.03-1.05-1.56-.94-1.4-1.82-2.81-2.67-4.25-.2-.34-.38-.65-.56-.99-.25-.41-.48-.83-.72-1.27-.26-.48-.54-.99-.79-1.47-.41-.79-.81-1.57-1.19-2.36-.21-.43-.42-.87-.62-1.31-.4-.84-.78-1.7-1.14-2.56-.2-.45-.39-.9-.57-1.36-.19-.43-.36-.87-.53-1.31-.17-.45-.34-.88-.5-1.33-.34-.88-.64-1.77-.94-2.67-.16-.44-.3-.88-.43-1.33-.15-.45-.27-.9-.41-1.34-.14-.44-.26-.9-.39-1.35-.38-1.35-.73-2.7-1.03-4.06-.12-.44-.21-.88-.31-1.34-.09-.45-.19-.91-.27-1.36-.15-.7-.27-1.38-.39-2.08-.07-.42-.14-.83-.2-1.25-.12-.71-.22-1.41-.32-2.12v-.02c-.09-.75-.19-1.51-.26-2.27-.17-1.52-.29-3.06-.37-4.58-.04-.76-.08-1.52-.11-2.28-.01-.45-.02-.9-.03-1.34-.15-9.97,1.37-19.86,4.38-29.25,.34-1.05,.71-2.11,1.09-3.16,4.31-11.89,11.08-22.87,19.97-31.98-4.2,27.16,4.95,51.9,28.59,69.92,14.83,11.31,51.07,24.46,79.02,44.31,22.82,16.24,34.86,36.52,22.15,61.3Z"/></g></g><g><path class="f" d="M418.25,320.29c2.16-3.17,4.13-6.04,5.91-8.63,1.78-2.58,3.8-5.52,6.07-8.81,2.27-3.29,4.6-6.67,6.99-10.13,2.39-3.46,4.72-6.84,6.99-10.12,2.27-3.29,4.29-6.24,6.08-8.85,1.78-2.61,3.78-5.5,5.99-8.66,2.03-2.68,4.53-4.81,7.5-6.4,2.97-1.58,6-2.38,9.08-2.38h60.63l-6.17,8.92c-1.98,2.88-4.54,5.18-7.68,6.91-3.14,1.73-6.32,2.6-9.55,2.6h-37.77c-1.72,0-3.14,.78-4.26,2.34l-17.09,24.78h51.01l-6.08,8.85c-1.99,2.92-4.56,5.25-7.7,6.98-3.14,1.73-6.32,2.59-9.55,2.59h-60.4Z"/><path class="f" d="M537.96,265.9c1.99-2.92,4.56-5.25,7.7-6.98,3.14-1.73,6.32-2.6,9.55-2.6h60.48l-37.43,54.4c-1.99,2.92-4.56,5.25-7.7,6.98-3.14,1.73-6.32,2.59-9.55,2.59h-60.48l37.43-54.39Zm-4.8,35.97h28.54c.81,0,1.58-.22,2.33-.66,.75-.44,1.37-1,1.85-1.68l17.16-24.78h-28.54c-1.72,0-3.1,.76-4.16,2.27l-17.18,24.85Z"/><path class="f" d="M619.02,265.9c2-2.92,4.56-5.25,7.7-6.98,3.14-1.73,6.32-2.6,9.55-2.6h60.7l-24.89,36.12c-1.99,2.92-4.56,5.25-7.7,6.98-3.14,1.73-6.32,2.59-9.55,2.59h-3.94l2.82,18.28h-20.44l-2.75-18.28h-15.82l-9.63,13.89c-.91,1.32-2.09,2.38-3.54,3.18-1.45,.8-2.91,1.21-4.37,1.21h-15.44l37.3-54.39Zm8.47,17.55h28.54c.55,0,1.11-.15,1.67-.44s1-.68,1.34-1.17l4.83-7.02h-28.53c-1.26,0-2.3,.56-3.1,1.68l-4.75,6.95Z"/><path class="f" d="M673.67,306.26c.91-1.32,2.09-2.38,3.54-3.18,1.45-.8,2.91-1.21,4.37-1.21h46.02l4.1-5.99h-50.86l20.71-30.12c.98-1.41,2.12-2.71,3.42-3.88,1.3-1.17,2.7-2.17,4.21-3s3.07-1.46,4.67-1.9c1.61-.44,3.19-.66,4.76-.66h60.63l-9.67,14.04c-.91,1.32-2.09,2.38-3.54,3.18-1.45,.8-2.91,1.21-4.37,1.21h-46.02l-4.1,5.99h50.86l-14.52,21.13-6.16,8.85c-2.04,2.92-4.62,5.25-7.74,6.98-3.11,1.73-6.29,2.59-9.51,2.59h-60.47l9.67-14.03Z"/><path class="f" d="M745.22,320.29c2.16-3.17,4.13-6.04,5.91-8.63,1.78-2.58,3.8-5.52,6.07-8.81,2.27-3.29,4.6-6.67,6.99-10.13,2.39-3.46,4.72-6.84,6.99-10.12,2.27-3.29,4.29-6.24,6.08-8.85,1.78-2.61,3.78-5.5,5.99-8.66,2.03-2.68,4.53-4.81,7.5-6.4,2.97-1.58,6-2.38,9.08-2.38h60.63l-6.17,8.92c-1.98,2.88-4.54,5.18-7.68,6.91-3.14,1.73-6.32,2.6-9.55,2.6h-37.77c-1.72,0-3.14,.78-4.26,2.34l-2.57,3.66h32.32l-7.4,10.67c-.92,1.37-2.11,2.45-3.56,3.25-1.45,.8-2.94,1.21-4.45,1.21h-24.67c-1.72,0-3.14,.78-4.26,2.34l-2.49,3.66h51.01l-6.08,8.85c-1.99,2.92-4.56,5.25-7.7,6.98-3.14,1.73-6.32,2.59-9.55,2.59h-60.41Z"/></g><g><path class="f" d="M8.03,279.36l37.43-54.39c1.99-2.92,4.56-5.25,7.7-6.98,3.14-1.73,6.32-2.59,9.55-2.59h9.69l-31.33,45.47h50.94l-6.1,8.92c-1.99,2.92-4.56,5.25-7.7,6.98-3.14,1.73-6.35,2.59-9.63,2.59H8.03Z"/><path class="f" d="M124.86,224.96c1.99-2.92,4.56-5.25,7.7-6.98,3.14-1.73,6.32-2.59,9.55-2.59h9.69l-37.43,54.39c-1.99,2.92-4.56,5.25-7.7,6.98-3.14,1.73-6.35,2.59-9.63,2.59h-9.69l37.51-54.39Z"/><path class="f" d="M155.21,224.96c1.99-2.92,4.56-5.25,7.7-6.98,3.14-1.73,6.32-2.59,9.55-2.59h60.48l-37.43,54.39c-1.99,2.92-4.56,5.25-7.7,6.98-3.14,1.73-6.32,2.59-9.55,2.59h-60.48l37.43-54.39Zm-4.79,35.97h28.54c.81,0,1.58-.22,2.33-.66,.75-.44,1.37-1,1.85-1.68l17.16-24.78h-28.54c-1.72,0-3.1,.76-4.16,2.27l-17.18,24.85Z"/><path class="f" d="M229.57,233.88l6.1-8.92c1.99-2.92,4.56-5.25,7.7-6.98,3.14-1.73,6.32-2.59,9.55-2.59h60.63l-6.17,8.92c-1.99,2.92-4.55,5.25-7.66,6.98-3.11,1.73-6.31,2.59-9.59,2.59h-13.17l-24.76,35.9c-2,2.92-4.56,5.25-7.7,6.98s-6.32,2.59-9.55,2.59h-9.69l31.33-45.47h-27.02Z"/><path class="f" d="M317.87,224.96c1.99-2.92,4.56-5.25,7.7-6.98,3.14-1.73,6.32-2.59,9.55-2.59h60.7l-24.89,36.12c-1.99,2.92-4.56,5.25-7.7,6.98-3.14,1.73-6.32,2.59-9.55,2.59h-3.94l2.82,18.28h-20.44l-2.75-18.28h-15.82l-9.63,13.89c-.91,1.32-2.09,2.38-3.54,3.18-1.45,.8-2.91,1.21-4.37,1.21h-15.44l37.3-54.4Zm8.47,17.55h28.54c.55,0,1.11-.15,1.67-.44,.56-.29,1-.68,1.34-1.17l4.83-7.02h-28.53c-1.26,0-2.3,.56-3.1,1.68l-4.75,6.95Z"/><path class="f" d="M408.39,217.76c2.97-1.58,6-2.38,9.08-2.38h9.53l-31.51,45.55h28.61c.76,0,1.51-.21,2.25-.62s1.36-.99,1.86-1.72l26.83-38.82c.91-1.32,2.09-2.38,3.54-3.18,1.45-.8,2.91-1.21,4.37-1.21h15.14l-37.51,54.39c-1.99,2.92-4.56,5.25-7.7,6.98-3.14,1.73-6.32,2.59-9.55,2.59h-60.48c7.1-10.28,13.41-19.45,18.95-27.49,2.39-3.46,4.72-6.85,7-10.16,2.27-3.31,4.31-6.26,6.12-8.85,1.8-2.58,3.79-5.48,5.96-8.7,2.04-2.66,4.54-4.79,7.51-6.38Z"/></g></g><path id="e" class="f" d="M0,294.74H330.54c17.13,0,33.56,6.81,45.68,18.92h0c12.11,12.11,28.54,18.92,45.68,18.92h385.09l-403.91,17.04c-18.06,.76-35.62-6.08-48.4-18.86l-.83-.83c-11.29-11.29-26.35-17.99-42.29-18.83L0,294.74Z"/></svg>