<?xml version="1.0" encoding="UTF-8"?><svg xmlns="http://www.w3.org/2000/svg" viewBox="0 0 1204.91 200.61"><defs><style>.h{fill:#009245;}.i{fill:#fff;}.j{fill:#ed1c24;}</style></defs><g id="a"/><g id="b"><g id="c"><g><g><g><g id="d"><g><path class="j" d="M1027.94,131.32l-.14,3.61c-21.01-2.54-86.27-10.63-113.45-18.74-1.31-.4-2.57-.78-3.75-1.17v-4.71c1.18,.39,2.44,.78,3.75,1.17,27.09,8.08,92.05,16.15,113.26,18.72,.21,.55,.29,.94,.32,1.13Z"/><path d="M911.03,110.88c.94,.3,1.98,.62,3.21,1,18.25,5.44,58.4,12.08,113.08,18.7,.13,.37,.19,.64,.21,.77l-.12,3.11c-38.79-4.7-89.68-11.73-112.93-18.67-1.35-.4-2.45-.75-3.45-1.08v-3.83m-.42-.58v4.71c1.18,.39,2.44,.78,3.75,1.17,27.17,8.11,92.44,16.2,113.45,18.74l.14-3.61c-.03-.19-.11-.58-.32-1.13-21.21-2.56-86.17-10.63-113.26-18.72-1.31-.39-2.57-.77-3.75-1.17h0Z"/></g><g><path class="i" d="M910.61,110.3v4.71c-.7-.22-1.37-.46-2.02-.68-19.48-6.83-64.61-17.41-111.15-19.56v-4.71c46.54,2.14,91.68,12.73,111.15,19.56,.65,.23,1.32,.46,2.02,.68Z"/><path d="M797.85,90.5c46.56,2.2,91.62,12.86,110.6,19.51,.52,.18,1.11,.38,1.74,.59v3.83c-.52-.17-1.02-.34-1.47-.5-19.03-6.67-64.21-17.36-110.87-19.56v-3.88m-.42-.44v4.71c46.54,2.14,91.68,12.73,111.15,19.56,.65,.22,1.32,.46,2.02,.68v-4.71c-.7-.22-1.37-.46-2.02-.68-19.48-6.82-64.61-17.41-111.15-19.56h0Z"/></g><g><path class="h" d="M797.43,90.06v4.71c-2.71-.13-5.41-.22-8.12-.29h-.02l-.67-.02c-.46,0-.91-.02-1.36-.03-28.03-.52-102.69,2.5-125.99,4.68-.06,0-.13,.01-.2,.02,3.69-.59,19.15-3.05,40.84-5.3,.01,0,.02,0,.03,0,2.05-.22,4.16-.43,6.32-.64,22.58-2.18,50.72-4,78.99-3.46,.45,.01,.9,.02,1.36,.03l.67,.02h.02c2.71,.07,5.42,.16,8.12,.29Z"/><path d="M777.19,90.05c3.39,0,6.78,.03,10.07,.1,.45,.01,.91,.02,1.36,.03l.69,.02c2.63,.06,5.22,.15,7.71,.27v3.88c-2.48-.12-5.07-.21-7.71-.27l-.68-.02c-.45,0-.91-.02-1.36-.03-2.13-.04-4.6-.06-7.33-.06-28.15,0-79.95,2.04-107.33,3.87,7.41-1.04,17.48-2.34,29.36-3.57h.08c1.99-.22,4.09-.43,6.26-.64,24.44-2.37,47.61-3.56,68.87-3.56m0-.42c-24.81,0-49.02,1.64-68.91,3.56-2.16,.21-4.27,.42-6.32,.64-.01,0-.02,0-.03,0-21.68,2.25-37.16,4.7-40.84,5.3,.06,0,.13-.01,.2-.02,21.49-2.01,86.68-4.73,118.66-4.73,2.69,0,5.15,.02,7.32,.06,.45,.01,.9,.02,1.36,.03l.67,.02h.02c2.71,.06,5.41,.16,8.12,.29v-4.71c-2.71-.13-5.41-.22-8.12-.29h-.02l-.67-.02c-.46,0-.91-.02-1.36-.03-3.36-.06-6.73-.1-10.08-.1h0Z"/></g></g><path id="e" d="M1027.61,130.19c-21.21-2.56-86.17-10.63-113.26-18.72-1.31-.4-2.57-.78-3.75-1.17-.7-.22-1.37-.46-2.02-.68-19.48-6.83-64.61-17.41-111.15-19.56-2.71-.13-5.41-.22-8.12-.29h-.02l-.67-.02c-.46,0-.91-.02-1.36-.03-28.27-.53-56.41,1.29-78.99,3.46-2.16,.21-4.27,.42-6.32,.64-.01,0-.02,0-.03,0-21.68,2.25-37.16,4.7-40.84,5.3-.01,0-.02,0-.04,0-.02,0-.05,0-.07,.01-.3,.05-.51,.08-.62,.1,2.75-.72,54-14.03,113.79-25.49,50.72-9.71,107.58-15.26,146.19-16.27,16.7-.64,31.48-.09,43.08,2.12-.03,1.58,.01,3.17,.12,4.74,.73,10.95,4.63,21.48,11.34,30.32,12.26,16.16,26.33,21.79,37.1,25.61,.67,.24,1.33,.47,1.98,.69,4.33,1.51,8.41,2.95,10.14,4.49,1.39,1.24,2.29,2.4,2.85,3.37,.31,.51,.52,.97,.67,1.36Z"/><g id="f"><g><path d="M1150.16,154.5c-31.13-2.18-48.58-33.27-51.07-41.76-1.16-3.96,.43-7.17,3.59-8.95,.77-.43,1.57-.72,2.39-.85,3.01-.51,5.98,.98,7.68,3.75,8.14,13.24,15.55,27.77,30.44,33.72,.83-9.05-.44-62.64-34.84-89.31-12.74-9.88-28.69-16.54-51.91-16.07,4.85,3.75,10.1,9.36,13.74,16.09,12.91,23.87-1.03,45.4-2.04,59.81-.81,11.59,6.66,22.98,36.04,25.04,4.43,21.42,22.51,33.97,40.97,35.26,31.81,2.22,54.71-27.37,59.77-52.71-9.59,19.67-25.32,38.04-54.76,35.98Zm-37.57-74.68c.88,3.56,.58,4.78-.43,6.99,.03,.2-9.9-1.4-11.06-11.8l11.49,4.81Z"/><path d="M1045.58,38.57l-39.27-28.12s-5.75,4.34-8.23,10.78c-5.88,15.2-.32,29.22,12.48,37.07,9.94,6.1,29.31,13.27,41.67,23.8,4.36,3.71,8,7.77,9.5,9.5,4.98-10.2,5.44-21.39,2.82-28.98-3.35-9.74-7.24-15.58-18.97-24.05Z"/><path d="M1055.01,120.13c-.87,1.71-2.04,3.34-3.44,4.79-.14,.16-.3,.31-.45,.46-.15,.16-.32,.31-.49,.47-.33,.31-.67,.6-1.02,.88-.89,.73-1.85,1.39-2.87,1.97-.14,.08-.3,.17-.44,.24-.08,.05-.17,.1-.26,.14-.17,.1-.34,.17-.51,.25-.75,.37-1.53,.69-2.33,.95-.16,.06-.32,.11-.49,.16,0,0-.02,.01-.02,.01-.19,.06-.36,.11-.55,.15-.17,.05-.33,.1-.49,.13-.23,.06-.45,.11-.68,.16-.23,.04-.45,.09-.67,.12-.24,.04-.5,.08-.74,.12-.43,.05-.88,.09-1.33,.12-.28,.02-.56,.02-.84,.03,0,0,.02-.43-.09-1.17-.01-.1-.02-.2-.04-.31-.02-.11-.03-.22-.06-.33h0c-.04-.24-.1-.5-.16-.77-.04-.15-.08-.31-.13-.48-.02-.09-.05-.19-.08-.28-.08-.29-.19-.59-.3-.89-.11-.31-.24-.64-.39-.96-.23-.52-.5-1.07-.82-1.65-.06-.12-.13-.23-.21-.35-.04-.08-.1-.17-.15-.26-.08-.13-.17-.28-.26-.41-.11-.17-.23-.35-.34-.53-.13-.19-.28-.38-.41-.58-.12-.17-.25-.33-.39-.51-.14-.19-.29-.37-.44-.55-.15-.19-.31-.38-.47-.56-.66-.74-1.4-1.5-2.26-2.26-.53-.48-1.12-.92-1.74-1.34-.15-.11-.32-.21-.48-.31-1.72-1.08-3.72-1.98-5.95-2.84-.22-.08-.43-.17-.66-.25-2-.75-4.17-1.49-6.46-2.3-.46-.17-.94-.33-1.41-.51-2.25-.82-4.58-1.71-6.98-2.78-.22-.09-.44-.2-.68-.3-1.04-.48-2.1-.99-3.16-1.54-.28-.14-.55-.29-.84-.43-.94-.51-1.89-1.04-2.84-1.62-.21-.13-.43-.26-.65-.4-2.07-1.28-4.14-2.73-6.19-4.42-.23-.2-.46-.39-.69-.59l-.59-.49c-.28-.24-.54-.48-.81-.72-.19-.17-.38-.34-.56-.52-.21-.19-.41-.38-.61-.58-.18-.16-.34-.33-.52-.51-.25-.24-.5-.49-.75-.74-.23-.23-.46-.46-.67-.7-.1-.1-.2-.2-.3-.3-.22-.23-.43-.47-.65-.7-.24-.27-.48-.53-.72-.8-.07-.08-.14-.15-.21-.23-.22-.26-.45-.52-.67-.79-.66-.77-1.32-1.58-1.96-2.43-.08-.11-.17-.21-.24-.31-.21-.28-.41-.54-.6-.82-.2-.27-.4-.54-.59-.82-.19-.28-.38-.55-.56-.83-.5-.74-.96-1.49-1.41-2.25-.11-.18-.2-.34-.3-.52-.13-.22-.25-.44-.38-.67-.14-.25-.29-.52-.42-.78-.22-.42-.43-.83-.63-1.25-.11-.23-.22-.46-.33-.69-.21-.44-.41-.9-.6-1.36-.11-.24-.21-.48-.3-.72-.1-.23-.19-.46-.28-.69-.09-.24-.18-.47-.26-.7-.18-.47-.34-.94-.5-1.41-.08-.23-.16-.47-.23-.7-.08-.24-.14-.48-.22-.71-.07-.23-.14-.48-.21-.71-.2-.71-.39-1.43-.55-2.15-.06-.23-.11-.47-.16-.71-.05-.24-.1-.48-.14-.72-.08-.37-.14-.73-.21-1.1-.04-.22-.07-.44-.11-.66-.06-.38-.12-.75-.17-1.12h0c-.05-.41-.1-.81-.14-1.21-.09-.8-.15-1.62-.2-2.43-.02-.4-.04-.8-.06-1.21,0-.24-.01-.48-.02-.71-.08-5.28,.73-10.52,2.32-15.49,.18-.56,.38-1.12,.58-1.67,2.28-6.3,5.87-12.11,10.58-16.94-2.22,14.38,2.62,27.49,15.14,37.03,7.85,5.99,27.05,12.95,41.85,23.47,12.08,8.6,18.46,19.34,11.73,32.46Z"/></g></g><g><path d="M854.47,174.6c1.14-1.68,2.19-3.2,3.13-4.57,.94-1.37,2.01-2.92,3.21-4.67,1.2-1.74,2.44-3.53,3.7-5.36,1.27-1.83,2.5-3.62,3.7-5.36,1.2-1.74,2.27-3.3,3.22-4.69,.94-1.38,2-2.91,3.17-4.59,1.08-1.42,2.4-2.55,3.97-3.39,1.57-.84,3.18-1.26,4.81-1.26h32.11l-3.27,4.72c-1.05,1.53-2.4,2.74-4.07,3.66s-3.35,1.38-5.06,1.38h-20c-.91,0-1.66,.41-2.26,1.24l-9.05,13.12h27.01l-3.22,4.69c-1.05,1.55-2.41,2.78-4.08,3.7-1.66,.92-3.35,1.37-5.06,1.37h-31.99Z"/><path d="M917.86,145.8c1.05-1.55,2.41-2.78,4.08-3.7,1.66-.92,3.35-1.38,5.06-1.38h32.03l-19.82,28.81c-1.05,1.55-2.41,2.78-4.08,3.7-1.66,.92-3.35,1.37-5.06,1.37h-32.03l19.82-28.8Zm-2.54,19.05h15.11c.43,0,.84-.12,1.23-.35s.73-.53,.98-.89l9.09-13.12h-15.11c-.91,0-1.64,.4-2.2,1.2l-9.1,13.16Z"/><path d="M960.79,145.8c1.06-1.55,2.41-2.78,4.08-3.7s3.35-1.38,5.06-1.38h32.15l-13.18,19.13c-1.05,1.55-2.41,2.78-4.08,3.7-1.66,.92-3.35,1.37-5.06,1.37h-2.09l1.49,9.68h-10.82l-1.46-9.68h-8.38l-5.1,7.36c-.48,.7-1.11,1.26-1.87,1.68-.77,.42-1.54,.64-2.31,.64h-8.18l19.75-28.8Zm4.49,9.29h15.11c.29,0,.59-.08,.88-.23s.53-.36,.71-.62l2.56-3.72h-15.11c-.67,0-1.22,.3-1.64,.89l-2.52,3.68Z"/><path d="M989.73,167.17c.48-.7,1.11-1.26,1.87-1.68,.77-.42,1.54-.64,2.31-.64h24.37l2.17-3.17h-26.93l10.97-15.95c.52-.75,1.12-1.44,1.81-2.05s1.43-1.15,2.23-1.59,1.63-.77,2.47-1.01c.85-.23,1.69-.35,2.52-.35h32.11l-5.12,7.44c-.48,.7-1.11,1.26-1.87,1.68-.77,.42-1.54,.64-2.31,.64h-24.37l-2.17,3.17h26.93l-7.69,11.19-3.26,4.69c-1.08,1.55-2.45,2.78-4.1,3.7-1.65,.92-3.33,1.37-5.04,1.37h-32.02l5.12-7.43Z"/><path d="M1027.62,174.6c1.14-1.68,2.19-3.2,3.13-4.57,.94-1.37,2.01-2.92,3.21-4.67s2.44-3.53,3.7-5.36c1.27-1.83,2.5-3.62,3.7-5.36,1.2-1.74,2.27-3.3,3.22-4.69,.94-1.38,2-2.91,3.17-4.59,1.08-1.42,2.4-2.55,3.97-3.39,1.57-.84,3.18-1.26,4.81-1.26h32.11l-3.27,4.72c-1.05,1.53-2.4,2.74-4.07,3.66s-3.35,1.38-5.06,1.38h-20c-.91,0-1.66,.41-2.26,1.24l-1.36,1.94h17.12l-3.92,5.65c-.49,.73-1.12,1.3-1.89,1.72s-1.56,.64-2.36,.64h-13.06c-.91,0-1.66,.41-2.26,1.24l-1.32,1.94h27.01l-3.22,4.69c-1.05,1.55-2.41,2.78-4.08,3.7s-3.35,1.37-5.06,1.37h-31.99Z"/></g><g><path d="M637.22,152.92l19.82-28.8c1.05-1.55,2.41-2.78,4.08-3.7s3.35-1.37,5.06-1.37h5.13l-16.59,24.08h26.98l-3.23,4.72c-1.05,1.55-2.41,2.78-4.08,3.7s-3.36,1.37-5.1,1.37h-32.07Z"/><path d="M699.09,124.11c1.05-1.55,2.41-2.78,4.08-3.7,1.66-.92,3.35-1.37,5.06-1.37h5.13l-19.82,28.8c-1.05,1.55-2.41,2.78-4.08,3.7-1.66,.92-3.36,1.37-5.1,1.37h-5.13l19.86-28.8Z"/><path d="M715.17,124.11c1.05-1.55,2.41-2.78,4.08-3.7s3.35-1.37,5.06-1.37h32.03l-19.82,28.8c-1.05,1.55-2.41,2.78-4.08,3.7-1.66,.92-3.35,1.37-5.06,1.37h-32.03l19.82-28.8Zm-2.54,19.05h15.11c.43,0,.84-.12,1.23-.35s.73-.53,.98-.89l9.09-13.12h-15.11c-.91,0-1.64,.4-2.2,1.2l-9.1,13.16Z"/><path d="M754.55,128.84l3.23-4.72c1.05-1.55,2.41-2.78,4.08-3.7,1.66-.92,3.35-1.37,5.06-1.37h32.11l-3.27,4.72c-1.05,1.55-2.41,2.78-4.06,3.7-1.65,.92-3.34,1.37-5.08,1.37h-6.97l-13.11,19.01c-1.06,1.55-2.41,2.78-4.08,3.7s-3.35,1.37-5.06,1.37h-5.13l16.59-24.08h-14.31Z"/><path d="M801.31,124.11c1.05-1.55,2.41-2.78,4.08-3.7,1.66-.92,3.35-1.37,5.06-1.37h32.15l-13.18,19.13c-1.05,1.55-2.41,2.78-4.08,3.7s-3.35,1.37-5.06,1.37h-2.09l1.49,9.68h-10.82l-1.46-9.68h-8.38l-5.1,7.36c-.48,.7-1.11,1.26-1.87,1.68s-1.54,.64-2.31,.64h-8.18l19.75-28.81Zm4.49,9.29h15.11c.29,0,.59-.08,.88-.23,.3-.15,.53-.36,.71-.62l2.56-3.72h-15.11c-.67,0-1.22,.3-1.64,.89l-2.52,3.68Z"/><path d="M849.25,120.3c1.57-.84,3.18-1.26,4.81-1.26h5.05l-16.69,24.12h15.15c.4,0,.8-.11,1.19-.33s.72-.52,.99-.91l14.21-20.56c.48-.7,1.11-1.26,1.87-1.68s1.54-.64,2.31-.64h8.02l-19.86,28.8c-1.05,1.55-2.41,2.78-4.08,3.7-1.66,.92-3.35,1.37-5.06,1.37h-32.03c3.76-5.44,7.1-10.3,10.04-14.56,1.27-1.83,2.5-3.63,3.71-5.38,1.2-1.75,2.28-3.32,3.24-4.69,.95-1.37,2.01-2.9,3.16-4.61,1.08-1.41,2.4-2.54,3.98-3.38Z"/></g></g><path id="g" d="M632.97,161.07h175.05c9.07,0,17.77,3.61,24.19,10.02h0c6.41,6.41,15.11,10.02,24.19,10.02h203.94l-213.9,9.02c-9.56,.4-18.86-3.22-25.63-9.99l-.44-.44c-5.98-5.98-13.95-9.53-22.4-9.97l-165-8.66Z"/></g><g><g><path d="M138.14,133.7c-17.91,0-29.14-17.1-30.9-21.86-.82-2.22-.04-4.12,1.69-5.27,.42-.28,.87-.47,1.33-.58,1.7-.41,3.46,.32,4.54,1.84,5.19,7.26,10.01,15.27,18.77,18.08,.11-5.21-2.76-35.84-23.51-49.73-7.69-5.15-17.09-8.32-30.36-7.12,2.93,1.95,6.16,4.96,8.51,8.66,8.34,13.15,1.23,26.03,1.23,34.32,0,6.67,4.73,12.89,21.63,12.89,3.39,12.09,14.25,18.55,24.87,18.55,18.3,0,30.22-17.86,32.1-32.56-4.7,11.64-12.97,22.79-29.9,22.79Zm-24.49-41.24c.64,2,.52,2.71,.03,4.02,.03,.11-5.72-.4-6.8-6.31l6.77,2.29Z"/><path d="M73.64,71.53l-23.6-14.53s-3.12,2.71-4.28,6.5c-2.76,8.94,.99,16.74,8.63,20.72,5.94,3.09,17.31,6.42,24.8,11.96,2.64,1.95,4.89,4.13,5.82,5.06,2.44-6.04,2.26-12.46,.46-16.7-2.31-5.44-4.77-8.63-11.82-13.01Z"/><path d="M74.31,99.75c-8.89-5.42-20.16-8.64-24.9-11.76-7.55-4.96-10.85-12.27-10.14-20.59-8.2,9.67-9.06,24.9,.22,35.5,10.87,12.42,23.21,10.73,28.65,14.94,4.41,3.41,4.53,7.08,4.53,7.08,4.49-.36,8.11-3.5,9.65-7.09,3.33-7.78-.75-13.67-8-18.08Z"/></g><g><g><path d="M73.86,197.05l2.33-9-3.16,1.04-1.04-3.02,5.87-1.96,3.2,.83-3.39,13.1-3.81-.99Z"/><path d="M92.09,200.12l.21-2.52-7.45-.63,.25-2.91,7.88-7.45,3.81,.32-.7,8.17,1.95,.16-.57,2.76-1.62-.14-.21,2.52-3.55-.3Zm.83-9.79l-4.38,4.15,4,.34,.38-4.49Z"/><path d="M105.9,194.87l-.24-2.95,1.5-.12c1.31-.11,1.94-.57,1.87-1.39-.03-.39-.23-.68-.6-.87-.37-.19-.87-.27-1.51-.21-.6,.05-1.06,.21-1.38,.49-.32,.27-.53,.7-.64,1.27l-3.72-.03c.03-.9,.27-1.69,.72-2.36,.45-.67,1.09-1.21,1.92-1.61,.83-.4,1.83-.65,3-.75,1.13-.09,2.13-.03,2.99,.2,.86,.23,1.55,.6,2.05,1.13s.79,1.18,.85,1.95c.06,.68-.09,1.29-.43,1.85s-.87,.99-1.57,1.31c.91,.21,1.61,.58,2.1,1.11s.77,1.18,.83,1.97c.11,1.33-.35,2.4-1.36,3.24-1.01,.83-2.49,1.32-4.43,1.48-1.97,.16-3.5-.15-4.61-.92-1.11-.78-1.74-1.95-1.9-3.54l3.75-.3c.25,1.3,1.07,1.9,2.48,1.78,.74-.06,1.3-.23,1.66-.51s.52-.66,.49-1.14c-.07-.9-.88-1.28-2.41-1.16l-1.42,.09Z"/><path d="M125.5,197.06l-.62-2.45-7.25,1.84-.72-2.83,5.01-9.61,3.7-.94,2.02,7.95,1.9-.48,.37,2.79-1.57,.4,.62,2.45-3.44,.88Zm-2.42-9.53l-2.78,5.35,3.89-.99-1.11-4.37Z"/></g><g><path d="M25.9,160.87c-.27,.53-.34,1.04-.22,1.55,.12,.51,.44,1.06,.97,1.65,.59,.68,1.12,1.13,1.57,1.35,.46,.22,.82,.2,1.11-.04,.27-.23,.38-.5,.34-.8-.04-.3-.25-.76-.63-1.37l-1.62-2.59c-.98-1.55-1.48-2.86-1.49-3.91-.01-1.06,.44-1.99,1.36-2.79,1.11-.97,2.34-1.26,3.69-.87s2.79,1.47,4.33,3.21c1.53,1.74,2.39,3.35,2.58,4.81,.19,1.46-.29,2.79-1.43,4.01l-2.71-3.09c.42-.54,.57-1.11,.46-1.71s-.49-1.28-1.16-2.03c-.62-.71-1.19-1.18-1.7-1.4-.51-.23-.93-.2-1.25,.08-.25,.21-.34,.49-.3,.82,.05,.33,.26,.79,.64,1.38l1.36,2.11c1.05,1.63,1.6,3.02,1.64,4.16,.04,1.14-.4,2.12-1.35,2.95-1.01,.88-2.21,1.12-3.58,.7-1.38-.42-2.78-1.45-4.21-3.08-1.33-1.51-2.09-2.91-2.3-4.2-.21-1.28,.13-2.48,1.02-3.59l2.89,2.71Z"/><path d="M27.9,147.15l-11.85,7.41-2.18-3.48,11.85-7.41,2.18,3.48Z"/><path d="M12.43,127.24c1.69-.5,3.23-.32,4.62,.52,1.4,.85,2.52,2.29,3.36,4.34,.63,1.52,.9,2.95,.83,4.27-.07,1.33-.49,2.51-1.27,3.54-.77,1.03-1.86,1.84-3.28,2.42-1.34,.55-2.64,.75-3.91,.58-1.27-.17-2.41-.7-3.44-1.57-1.02-.88-1.86-2.1-2.5-3.66-.77-1.87-1.01-3.52-.71-4.95,.3-1.43,1.14-2.65,2.52-3.65l2,3.62c-.59,.51-.95,1.06-1.06,1.66-.11,.59-.01,1.28,.32,2.08,.46,1.1,1.14,1.82,2.05,2.16s1.95,.27,3.12-.21c1.18-.49,1.97-1.18,2.36-2.07,.4-.89,.36-1.9-.11-3.03-.36-.88-.82-1.5-1.35-1.86s-1.19-.48-1.95-.35l-1.58-3.83Z"/><path d="M16.29,120.72l-13.64,3.05-.9-4.01,13.64-3.05,.9,4.01Z"/><path d="M14.34,111.16l-13.95,.93-.27-4.1,10.59-.7-.53-7.99,3.39,.21,.78,11.66Z"/><path d="M13.92,94.53l-13.92-1.19,.35-4.1,13.92,1.19-.35,4.1Z"/><path d="M17.67,73.92l-2.79,.36-1.64,6.23,2.26,1.66-1.06,4.03-11.97-9.44,1.23-4.66,15.07-2.33-1.09,4.15Zm-11.46,1.4l4.34,3.22,1.02-3.9-5.36,.68Z"/><path d="M20.48,66.06l-12.44-6.37,5.55-10.84,2.81,1.43-3.71,7.25,1.9,.97,3.53-6.88,2.81,1.43-3.53,6.88,2.12,1.09,3.93-7.67,2.63,1.79-5.59,10.91Z"/><path d="M34.02,30.26c-.54-.23-1.06-.27-1.55-.12-.49,.15-1.02,.51-1.59,1.07-.64,.64-1.05,1.19-1.24,1.66-.19,.47-.15,.83,.12,1.1,.25,.25,.52,.35,.82,.29,.3-.06,.74-.3,1.33-.72l2.48-1.78c1.49-1.08,2.76-1.66,3.81-1.74,1.05-.08,2.01,.31,2.88,1.18,1.04,1.04,1.41,2.25,1.11,3.63-.3,1.38-1.28,2.88-2.92,4.53-1.64,1.64-3.19,2.6-4.63,2.89-1.45,.28-2.81-.11-4.09-1.17l2.91-2.91c.56,.38,1.14,.49,1.73,.35s1.24-.58,1.95-1.29c.66-.66,1.09-1.26,1.29-1.79,.2-.52,.14-.94-.16-1.25-.23-.23-.51-.31-.83-.24-.33,.07-.77,.31-1.33,.73l-2.02,1.5c-1.56,1.16-2.91,1.79-4.05,1.91-1.14,.12-2.15-.27-3.03-1.15-.95-.95-1.26-2.12-.93-3.53,.34-1.4,1.26-2.87,2.79-4.4,1.42-1.42,2.77-2.28,4.03-2.57,1.27-.29,2.48-.03,3.65,.78l-2.5,3.05Z"/><path d="M50.53,29.41l-5.87-8.84-4.34,2.88-1.86-2.81,12.1-8.03,1.86,2.81-4.34,2.88,5.87,8.84-3.43,2.28Z"/><path d="M66.66,20.61l-10.34-10.99,4.22-1.62,7.04,8.03-.17-10.68,4.13-1.59-.29,15.09-4.59,1.76Z"/><path d="M80.15,15.92l-2-13.84,6.51-.94c2.76-.4,4.94-.12,6.54,.85,1.6,.96,2.56,2.58,2.89,4.85,.32,2.21-.18,4.02-1.51,5.44s-3.36,2.33-6.11,2.72l-6.32,.91Zm5.94-4.18c2.92-.42,4.2-1.86,3.85-4.31-.35-2.43-1.93-3.44-4.73-3.03l-2.56,.37,1.06,7.33,2.38-.35Z"/><path d="M99.92,13.98l.37-13.98,4.11,.11-.37,13.98-4.11-.11Z"/><path d="M113.67,15.09L110.73,.29l4.44,.86,1.71,10.54,5.52-9.15,4.34,.84-8.25,12.64-4.83-.94Z"/><path d="M140.13,23.4l3.15-6.8-6.18,5.4-2.52-1.17,.12-8.17-3.14,6.77-3.11-1.44,5.41-11.68,3.88,1.8-.1,9.61,7.25-6.3,3.81,1.77-5.41,11.68-3.16-1.46Z"/><path d="M167.1,38.91l-2.27-2.3,2.19-2.16,4.92,4.99-4.58,4.53c-1.11-.23-2.19-.65-3.26-1.27s-2.05-1.4-2.98-2.34c-1.95-1.97-3-3.94-3.17-5.91-.17-1.97,.57-3.77,2.21-5.39,1.07-1.06,2.22-1.74,3.48-2.07,1.25-.32,2.52-.26,3.82,.2s2.56,1.3,3.77,2.52c1.37,1.38,2.21,2.79,2.52,4.22,.32,1.43,.09,2.78-.68,4.05l-3.18-2.64c.26-.59,.31-1.16,.14-1.69-.17-.54-.56-1.13-1.18-1.74-.91-.92-1.85-1.37-2.82-1.36-.97,.01-1.93,.49-2.88,1.42-.99,.98-1.47,1.97-1.44,2.96,.03,1,.58,2.04,1.66,3.12,.86,.87,1.74,1.51,2.63,1.92l1.08-1.06Z"/><path d="M169.21,49.09l11.82-7.46,6.5,10.3-2.67,1.68-4.35-6.89-1.8,1.14,4.13,6.54-2.67,1.68-4.13-6.54-2.02,1.28,4.6,7.28-2.88,1.35-6.54-10.35Z"/><path d="M181.8,74.29l5.6-9.54-8,2.88-1.33-3.69,13.15-4.73,1.23,3.43-5.6,9.54,8-2.88,1.33,3.69-13.15,4.73-1.23-3.43Z"/><path d="M184.16,82.86l13.87-1.76,1.54,12.08-3.13,.4-1.03-8.08-2.12,.27,.97,7.67-3.13,.4-.97-7.67-2.37,.3,1.09,8.55h-3.17l-1.54-12.15Z"/><path d="M185.05,110.2l4.94-2.41,.25-3.2-4.72-.37,.3-3.86,13.94,1.11-.56,7.12c-.33,4.15-2.04,6.11-5.12,5.86-.92-.07-1.68-.34-2.26-.79-.59-.46-1.04-1.11-1.35-1.97l-5.77,2.98,.35-4.46Zm7.93-2.38c-.07,.88,0,1.54,.24,1.97,.23,.42,.64,.66,1.22,.71,.58,.04,1-.11,1.28-.48,.28-.36,.46-.99,.53-1.89l.24-3.05-3.28-.26-.23,3Z"/><path d="M180.51,129.41l2.8-.24,1.91-6.15-2.18-1.76,1.23-3.98,11.55,9.96-1.43,4.6-15.16,1.68,1.28-4.1Zm11.51-.9l-4.19-3.41-1.19,3.85,5.39-.44Z"/><path d="M177.33,137.12l12.19,6.85-2.02,3.58-9.25-5.2-3.92,6.98-2.72-2.02,5.73-10.19Z"/><path d="M168.82,151.26l10.62,9.1-7.92,9.25-2.4-2.05,5.3-6.19-1.62-1.39-5.03,5.87-2.4-2.05,5.03-5.87-1.81-1.55-5.61,6.54-2.14-2.35,7.98-9.31Z"/></g><circle cx="51.4" cy="179.04" r="2.67"/><circle cx="148.01" cy="179.04" r="2.67"/></g><g><g><path d="M260.99,32.72v35.3c-.1,5.99,1.32,10.53,4.17,13.62,2.85,3.09,6.74,4.63,11.68,4.63,5.22,0,9.23-1.7,12.04-5.1s4.2-8.27,4.34-14.59V32.44h3.16v34.13c-.27,7.81-2.16,13.72-5.92,17.72-3.76,4-9.22,6-16.35,6-3.6,0-6.83-.51-9.7-1.51-2.88-1.01-5.33-2.48-7.37-4.42-2.04-1.94-3.59-4.34-4.67-7.19-1.08-2.85-1.62-6.12-1.49-9.81V33.07h10.11v-.36Z"/><path d="M315.35,89.33h-9.48V54.56h9.48v34.76Zm-.64-25.88c.63-3.55,2.12-6.18,4.45-7.91,2.34-1.73,5.01-2.59,8.02-2.59,2.24,0,4.12,.36,5.65,1.08,1.53,.72,2.78,1.7,3.76,2.95,.98,1.25,1.68,2.69,2.12,4.31,.44,1.63,.65,3.36,.65,5.18v22.86h-9.48v-22.64c0-1.73-.18-3.2-.55-4.42-.37-1.22-.87-2.21-1.49-2.95-.64-.74-1.37-1.28-2.23-1.62-.85-.34-1.76-.51-2.74-.51-1.75,0-3.33,.51-4.74,1.51-1.42,1.01-2.56,2.59-3.43,4.74Z"/><path d="M348.51,38.82c0-1.54,.54-2.84,1.62-3.92,1.08-1.08,2.38-1.62,3.92-1.62s2.85,.54,3.96,1.62c1.1,1.07,1.66,2.38,1.66,3.92s-.55,2.84-1.66,3.92c-1.1,1.07-2.42,1.62-3.96,1.62s-2.84-.54-3.92-1.62c-1.07-1.08-1.62-2.38-1.62-3.92Zm.98,15.74h9.48v34.76h-9.48V54.56Z"/><path d="M398.78,54.56l-14.67,34.76h-5.21l-14.67-34.76h10.26l10.41,26.09,11.13-26.09h2.75Z"/><path d="M410.8,67.58c.27,.43,.25,.86,0,1.3v1.15c.25,2.21,.46,4.24,.89,6.11,.43,1.87,1.1,3.49,2.01,4.85s2.09,2.45,3.56,3.24c1.46,.79,3.2,1.19,5.21,1.19,1.15,0,2.33-.15,3.52-.43,1.19-.28,2.36-.78,3.48-1.47s2.17-1.62,3.13-2.77,1.77-2.57,2.45-4.24l1.08,.36c-1.3,4.65-3.39,8.05-6.29,10.21s-6.29,3.24-10.17,3.24c-2.78,0-5.31-.44-7.58-1.33s-4.22-2.14-5.82-3.77c-1.61-1.63-2.85-3.6-3.74-5.89-.88-2.3-1.33-4.89-1.33-7.76s.47-5.23,1.4-7.51,2.23-4.24,3.88-5.89c1.66-1.66,3.6-2.93,5.86-3.84,2.25-.91,4.72-1.37,7.4-1.37,2.16,0,4.17,.35,6.04,1.04,1.87,.7,3.5,1.69,4.89,2.98,1.39,1.3,2.49,2.84,3.31,4.63,.82,1.8,1.25,3.8,1.3,6.24h-24.48v-.26Zm8.87-12.92c-1.25,0-2.35,.3-3.31,.9-.96,.6-1.78,1.43-2.48,2.48-.7,1.06-1.26,2.26-1.69,3.63-.43,1.37-.75,2.79-.94,4.28h15.09c-.05-3.64-.61-6.43-1.69-8.38-1.08-1.93-2.74-2.91-5-2.91Z"/><path d="M452.51,89.33h-9.47V54.56h9.48v9.56c.44-1.63,1.03-3.13,1.79-4.49,.75-1.37,1.68-2.54,2.8-3.52,1.11-.98,2.44-1.75,3.97-2.3s3.31-.83,5.35-.83v8.17c-.83-.19-1.61-.34-2.36-.43-.76-.09-1.54-.15-2.37-.15-.97,0-1.93,.06-2.87,.18-.95,.12-1.83,.32-2.66,.61-.83,.29-1.56,.67-2.18,1.15-.63,.48-1.11,1.08-1.46,1.8v25.02h0Z"/><path d="M472.72,80.37c.91,0,1.66,.24,2.26,.72s1.13,1.06,1.58,1.73,.86,1.37,1.22,2.09c.36,.72,.78,1.34,1.26,1.87,1.06,1.25,2.35,1.87,3.88,1.87,2.01,0,3.62-.61,4.82-1.83s1.8-2.74,1.8-4.56c0-1.68-.51-3.13-1.51-4.35s-2.57-2.12-4.67-2.7l-3.16-.94c-2.01-.58-3.68-1.25-4.99-2.01-1.32-.76-2.36-1.62-3.13-2.55s-1.31-1.92-1.62-2.95-.47-2.1-.47-3.2c0-1.73,.36-3.24,1.07-4.53,.72-1.3,1.69-2.37,2.91-3.24,1.22-.86,2.67-1.52,4.35-1.98s3.5-.68,5.46-.68c1.49,0,2.98,.13,4.49,.4s2.86,.64,4.06,1.15c1.19,.51,2.18,1.13,2.95,1.87,.76,.75,1.15,1.59,1.15,2.55,0,.86-.34,1.61-1.01,2.23s-1.46,.94-2.37,.94-1.63-.19-2.16-.58c-.53-.39-.97-.86-1.33-1.43-.36-.58-.68-1.18-.97-1.8-.28-.62-.64-1.19-1.08-1.73-.52-.67-1.1-1.16-1.73-1.47s-1.46-.47-2.52-.47c-1.58,0-2.91,.51-3.99,1.51-1.08,1.01-1.62,2.28-1.62,3.81s.48,2.81,1.43,3.96c.96,1.15,2.54,2.06,4.75,2.73l3.02,.86c3.98,1.1,6.81,2.57,8.51,4.39,1.7,1.82,2.55,4.15,2.55,6.97,0,1.87-.4,3.51-1.22,4.92-.82,1.42-1.9,2.59-3.27,3.52s-2.94,1.64-4.71,2.12c-1.78,.48-3.62,.72-5.54,.72-4.65,0-8.19-.64-10.6-1.94-2.42-1.3-3.63-2.78-3.63-4.46,0-1.06,.35-1.9,1.04-2.55,.7-.67,1.59-.99,2.7-.99Z"/><path d="M504.78,38.82c0-1.54,.54-2.84,1.62-3.92,1.07-1.08,2.38-1.62,3.92-1.62s2.85,.54,3.96,1.62c1.1,1.07,1.66,2.38,1.66,3.92s-.55,2.84-1.66,3.92c-1.1,1.07-2.42,1.62-3.96,1.62s-2.84-.54-3.92-1.62-1.62-2.38-1.62-3.92Zm.83,15.74h9.48v34.76h-9.48V54.56Z"/><path d="M520.16,54.56h6.31v-6.61l9.48-6.54v13.15h12.64v1.9h-12.64v22.5c0,2.59,.5,4.41,1.49,5.46,.99,1.06,2.34,1.58,4.04,1.58,1.41,0,2.61-.37,3.61-1.11s2.05-1.93,3.17-3.56l1.02,.58c-1.26,2.64-2.86,4.66-4.81,6.07-1.94,1.42-4.39,2.12-7.36,2.12-3.16,0-5.72-.9-7.69-2.7-1.97-1.8-2.95-4.66-2.95-8.59v-22.34h-6.32v-1.9h.01Z"/><path d="M579.49,81.98c0,2.32,.82,3.49,2.44,3.49,.6,0,1.19-.13,1.78-.39,.58-.26,1.13-.73,1.64-1.43l.56,.28c-.74,2.14-1.81,3.62-3.21,4.42-1.4,.81-3.02,1.22-4.88,1.22-1.67,0-3.21-.43-4.6-1.29s-2.23-2.26-2.51-4.22c-1.21,2.09-2.66,3.55-4.36,4.39-1.7,.83-3.47,1.26-5.33,1.26-3.06,0-5.37-.82-6.9-2.44-1.53-1.62-2.3-3.55-2.3-5.78,0-1.81,.45-3.36,1.36-4.63s2.18-2.35,3.84-3.21c1.65-.86,3.63-1.52,5.96-1.99,2.32-.47,4.9-.77,7.73-.91v-9.76c0-2.18-.4-3.74-1.22-4.67-.82-.93-2.01-1.4-3.59-1.4-1.21,0-2.24,.29-3.1,.87-.86,.58-1.29,1.54-1.29,2.89,0,.28,.02,.59,.07,.94,.05,.35,.07,.78,.07,1.29,0,1.21-.31,2.19-.94,2.93-.63,.74-1.54,1.12-2.75,1.12-1.02,0-1.87-.34-2.54-1.01-.67-.67-1.01-1.59-1.01-2.75,0-1.35,.39-2.51,1.18-3.49,.79-.97,1.79-1.78,3-2.4,1.21-.63,2.52-1.09,3.94-1.39,1.42-.3,2.75-.45,4.01-.45,4.41,0,7.7,.79,9.86,2.37,2.16,1.58,3.22,4.3,3.17,8.16l-.07,17.97Zm-23.74-49.54h9.7l5.65,16.43h-1.31l-14.05-16.43Zm4.6,48.43c0,1.63,.4,2.97,1.19,4.03,.79,1.06,1.9,1.58,3.34,1.58,.95,0,1.93-.19,2.91-.58,.98-.39,1.95-1.19,2.91-2.45v-11.79c-3.45,.43-6.04,1.49-7.76,3.16-1.74,1.68-2.6,3.69-2.6,6.04Z"/></g><g><path d="M278.99,137.37c-1.1-.95-2.22-1.64-3.34-2.05-1.13-.4-2.34-.61-3.63-.61-1.63,0-3.12,.36-4.46,1.08s-2.5,1.73-3.49,3.02c-.98,1.3-1.75,2.84-2.3,4.63-.55,1.8-.83,3.77-.83,5.93s.28,4.13,.83,5.93c.55,1.8,1.31,3.34,2.3,4.63,.98,1.3,2.17,2.29,3.56,2.98s2.92,1.04,4.6,1.04c1.15,0,2.29-.16,3.41-.51,1.13-.34,2.24-.98,3.34-1.94-.96,1.87-2.33,3.43-4.13,4.67-1.8,1.25-4.13,1.87-7.01,1.87-2.45,0-4.7-.46-6.76-1.37s-3.84-2.19-5.32-3.84c-1.49-1.66-2.65-3.63-3.48-5.93-.84-2.3-1.26-4.82-1.26-7.55s.42-5.09,1.26-7.36c.83-2.28,2-4.27,3.48-5.97,1.49-1.7,3.26-3.03,5.32-3.99s4.31-1.44,6.76-1.44c2.88,0,5.2,.64,6.97,1.9,1.78,1.27,3.17,2.89,4.17,4.85Zm-.29,29.7v-56.89h9.48v56.89h-9.48Z"/><path d="M297.68,116.59c0-1.54,.54-2.84,1.62-3.92,1.07-1.08,2.38-1.62,3.92-1.62s2.85,.54,3.96,1.62c1.1,1.07,1.66,2.38,1.66,3.92s-.55,2.84-1.66,3.92c-1.1,1.07-2.42,1.62-3.96,1.62s-2.84-.54-3.92-1.62c-1.08-1.08-1.62-2.38-1.62-3.92Zm.61,15.72h9.48v34.76h-9.48v-34.76Z"/></g><g><path d="M379.62,162.02c-3.45,2.23-6.96,3.77-10.53,4.68-3.57,.91-7.2,1.37-10.89,1.37-5.32,0-9.98-.78-13.98-2.34-4-1.55-7.33-3.68-9.99-6.36s-4.65-5.81-5.97-9.38c-1.32-3.57-1.98-7.34-1.98-11.32,0-4.46,.75-8.51,2.26-12.15,1.51-3.64,3.65-6.74,6.43-9.31,2.78-2.56,6.13-4.54,10.06-5.93,3.93-1.39,8.31-2.09,13.15-2.09,3.88,0,7.52,.4,10.92,1.22,3.4,.82,10.08,3.67,10.08,3.67v11.91h-1.09c-1.7-4.79-4.33-8.46-7.91-11-3.58-2.54-7.72-3.81-12.41-3.81-2.71,0-5.31,.54-7.81,1.6-2.5,1.07-4.68,2.73-6.57,4.97-1.89,2.25-3.4,5.11-4.54,8.57-1.14,3.46-1.7,7.56-1.7,12.31s.56,8.85,1.67,12.3c1.11,3.46,2.61,6.31,4.5,8.53,1.89,2.23,4.08,3.87,6.57,4.93,2.49,1.07,5.12,1.6,7.88,1.6,2.37,0,4.62-.29,6.75-.87,2.13-.58,4.09-1.51,5.88-2.8,1.79-1.28,3.38-2.94,4.76-4.97s2.5-4.47,3.38-7.33h1.28v12.01h-.21Z"/><path d="M413.26,159.76c0,2.32,.81,3.49,2.44,3.49,.6,0,1.2-.13,1.78-.39s1.13-.73,1.64-1.43l.56,.28c-.74,2.14-1.82,3.62-3.21,4.43-1.39,.81-3.02,1.22-4.88,1.22-1.67,0-3.21-.43-4.61-1.29-1.4-.86-2.23-2.26-2.51-4.22-1.21,2.09-2.66,3.56-4.36,4.4-1.7,.83-3.48,1.26-5.34,1.26-3.07,0-5.37-.82-6.91-2.44-1.53-1.63-2.3-3.56-2.3-5.79,0-1.82,.45-3.36,1.36-4.64,.91-1.28,2.18-2.35,3.84-3.21,1.65-.86,3.64-1.52,5.96-1.99,2.32-.47,4.91-.77,7.74-.91v-9.76c0-2.18-.41-3.74-1.22-4.67-.82-.93-2.01-1.4-3.59-1.4-1.21,0-2.24,.29-3.1,.87-.86,.58-1.29,1.55-1.29,2.89,0,.28,.02,.59,.07,.94s.07,.78,.07,1.29c0,1.21-.31,2.19-.94,2.93s-1.55,1.12-2.75,1.12c-1.02,0-1.87-.34-2.54-1.01-.67-.67-1.01-1.59-1.01-2.75,0-1.35,.39-2.51,1.18-3.49,.79-.98,1.79-1.78,3-2.4,1.21-.63,2.52-1.09,3.94-1.39s2.75-.45,4.01-.45c4.42,0,7.71,.79,9.87,2.37s3.22,4.3,3.17,8.16l-.06,17.98Zm-19.15-1.12c0,1.63,.4,2.97,1.19,4.03,.79,1.06,1.9,1.58,3.34,1.58,.96,0,1.93-.19,2.91-.58,.98-.39,1.95-1.19,2.91-2.45v-11.79c-3.45,.43-6.04,1.49-7.76,3.16-1.73,1.68-2.6,3.69-2.6,6.04Z"/><path d="M420.29,132.31h5.68v-6.61l9.48-6.54v13.15h12.64v1.9h-12.64v22.5c0,2.59,.47,4.41,1.39,5.46,.93,1.06,2.19,1.58,3.77,1.58,1.32,0,2.43-.37,3.37-1.11,.93-.74,1.91-1.93,2.96-3.56l.95,.58c-1.18,2.64-2.68,4.66-4.49,6.07-1.81,1.42-4.1,2.12-6.87,2.12-2.95,0-5.34-.9-7.17-2.7-1.84-1.8-2.76-4.66-2.76-8.59v-22.34h-6.32v-1.9h.01Z"/><path d="M478.99,159.75c0,2.32,.82,3.49,2.44,3.49,.6,0,1.2-.13,1.78-.39s1.13-.73,1.64-1.43l.56,.28c-.74,2.14-1.81,3.62-3.21,4.42-1.4,.81-3.02,1.22-4.88,1.22-1.67,0-3.21-.43-4.6-1.29-1.4-.86-2.23-2.26-2.51-4.22-1.21,2.09-2.66,3.55-4.36,4.39-1.7,.83-3.47,1.26-5.33,1.26-3.06,0-5.37-.82-6.9-2.44-1.53-1.62-2.3-3.55-2.3-5.79,0-1.81,.45-3.36,1.36-4.63,.91-1.28,2.18-2.35,3.84-3.21,1.65-.86,3.63-1.52,5.96-1.99,2.32-.47,4.9-.77,7.73-.91v-9.76c0-2.18-.4-3.74-1.22-4.67s-2.01-1.4-3.59-1.4c-1.21,0-2.24,.29-3.1,.87-.86,.58-1.29,1.54-1.29,2.89,0,.28,.02,.59,.07,.94,.05,.35,.07,.78,.07,1.29,0,1.21-.31,2.19-.94,2.93-.63,.74-1.54,1.12-2.75,1.12-1.02,0-1.87-.34-2.54-1.01-.67-.67-1.01-1.59-1.01-2.75,0-1.35,.39-2.51,1.18-3.49,.79-.97,1.79-1.78,3-2.4,1.21-.63,2.52-1.09,3.94-1.39,1.42-.3,2.75-.45,4.01-.45,4.41,0,7.7,.79,9.86,2.37,2.16,1.58,3.22,4.3,3.17,8.16l-.07,17.97Zm-19.14-1.11c0,1.63,.4,2.97,1.19,4.03,.79,1.06,1.9,1.58,3.34,1.58,.95,0,1.93-.19,2.91-.58,.98-.39,1.95-1.19,2.91-2.45v-11.79c-3.45,.43-6.04,1.49-7.76,3.16-1.73,1.68-2.6,3.69-2.6,6.04Z"/><path d="M500.55,167.07h-9.48v-34.76h9.48v34.76Zm-.64-25.88c.63-3.55,2.12-6.18,4.45-7.91s5.01-2.59,8.02-2.59c2.24,0,4.12,.36,5.65,1.08,1.53,.72,2.78,1.7,3.76,2.95,.97,1.25,1.68,2.69,2.12,4.31,.44,1.63,.65,3.36,.65,5.18v22.86h-9.48v-22.64c0-1.73-.19-3.2-.55-4.42-.37-1.22-.87-2.21-1.49-2.95-.64-.74-1.37-1.28-2.23-1.62-.85-.34-1.76-.51-2.73-.51-1.75,0-3.33,.51-4.74,1.51-1.42,1-2.57,2.59-3.44,4.74Z"/><path d="M533.65,116.59c0-1.54,.54-2.84,1.62-3.92,1.07-1.08,2.38-1.62,3.92-1.62s2.85,.54,3.96,1.62c1.1,1.07,1.66,2.38,1.66,3.92s-.55,2.84-1.66,3.92c-1.1,1.07-2.42,1.62-3.96,1.62s-2.84-.54-3.92-1.62c-1.07-1.08-1.62-2.38-1.62-3.92Zm1.03,15.72h9.48v34.76h-9.48v-34.76Z"/><path d="M579.5,159.76c0,2.32,.81,3.49,2.44,3.49,.6,0,1.2-.13,1.78-.39,.58-.26,1.13-.73,1.64-1.43l.56,.28c-.74,2.14-1.82,3.62-3.21,4.43-1.4,.81-3.02,1.22-4.88,1.22-1.67,0-3.21-.43-4.61-1.29s-2.23-2.26-2.51-4.22c-1.21,2.09-2.66,3.56-4.36,4.4-1.7,.83-3.48,1.26-5.34,1.26-3.07,0-5.37-.82-6.91-2.44-1.53-1.63-2.3-3.56-2.3-5.79,0-1.82,.45-3.36,1.36-4.64,.91-1.28,2.18-2.35,3.84-3.21,1.65-.86,3.64-1.52,5.96-1.99,2.32-.47,4.91-.77,7.74-.91v-9.76c0-2.18-.41-3.74-1.22-4.67-.82-.93-2.01-1.4-3.59-1.4-1.21,0-2.24,.29-3.1,.87-.86,.58-1.29,1.55-1.29,2.89,0,.28,.02,.59,.07,.94s.07,.78,.07,1.29c0,1.21-.31,2.19-.94,2.93s-1.55,1.12-2.75,1.12c-1.02,0-1.87-.34-2.54-1.01-.67-.67-1.01-1.59-1.01-2.75,0-1.35,.39-2.51,1.18-3.49,.79-.98,1.79-1.78,3-2.4,1.21-.63,2.52-1.09,3.94-1.39,1.42-.3,2.75-.45,4.01-.45,4.42,0,7.71,.79,9.87,2.37s3.22,4.3,3.17,8.16l-.06,17.98Zm-19.78-1.12c0,1.63,.4,2.97,1.19,4.03,.79,1.06,1.9,1.58,3.34,1.58,.96,0,1.93-.19,2.91-.58,.98-.39,1.95-1.19,2.91-2.45v-11.79c-3.45,.43-6.04,1.49-7.76,3.16-1.74,1.68-2.6,3.69-2.6,6.04Z"/></g></g></g></g></g></g></svg>